# xmcd
#
# Track frame offsets:
#	150
#	23755
#	42061
#	63789
#	82272
#	99524
#	120522
#	139735
#
# Disc length: 2172 seconds
#
# Revision: 2
# Processed by: cddbd v1.5.2PL0 Copyright (c) Steve Scherf et al.
# Submitted via: audiograbber 1.83.01
#
DISCID=5f087a08
DTITLE=Chill - Chill out
DYEAR=1985
DGENRE=Soul
TTITLE0=911
TTITLE1=Sexy so nasty
TTITLE2=Think about it
TTITLE3=Never walk another day without you
TTITLE4=Lady Seduction
TTITLE5=Misty
TTITLE6=Do it with control
TTITLE7=Hanging on
EXTD=
EXTT0=
EXTT1=
EXTT2=
EXTT3=
EXTT4=
EXTT5=
EXTT6=
EXTT7=
PLAYORDER=
